<svg width="875" height="240" viewBox="0 0 875 240" fill="none" xmlns="http://www.w3.org/2000/svg">
<g filter="url(#filter0_d_7_18)">
<path d="M74.0148 161.258C74.024 161.258 74.024 161.244 74.024 161.244C74.024 161.244 74.024 161.235 74.0333 161.235C83.3282 147.978 96.317 137.545 111.49 131.462C111.499 131.462 111.511 131.451 111.522 131.451C112.351 131.162 113.191 130.851 113.999 130.513C113.999 130.513 114.009 130.504 114.02 130.504C130.86 123.552 142.736 106.833 142.736 87.323C142.736 85.3785 142.616 83.4621 142.378 81.59C142.104 79.2142 141.639 76.9014 141.018 74.6562C135.544 55.0556 117.717 40.6937 96.5594 40.6937C77.5356 40.6937 61.1876 52.323 54.116 68.9207C53.4049 70.5971 52.7815 72.3317 52.269 74.1083C49.6209 82.3267 48.1895 91.1047 48.1895 100.211C48.1895 124.2 58.0869 145.845 73.9778 161.219C42.7155 151.492 20 122.087 20 87.3253C20 44.6246 54.2752 10 96.571 10C107.029 10 117.008 12.124 126.083 15.9546C149.889 26.0078 167.601 47.8536 172.034 74.2668C172.449 76.6822 172.747 79.1349 172.923 81.6179C173.061 83.5041 173.128 85.4089 173.128 87.323C173.128 102.177 168.982 116.061 161.778 127.839C156.771 136.051 150.29 143.243 142.706 149.025C142.448 149.205 140.921 150.501 139.446 151.45C112.686 168.651 96.5618 174.814 86.9967 210C79.3503 197.911 74.6705 183.708 74.0171 168.456C74.0079 168.437 74.0171 168.428 74.0171 168.428C73.9594 167.171 73.927 165.924 73.927 164.646C73.927 163.529 73.9871 161.305 73.9871 161.305" fill="#9B51E0"/>
<path opacity="0.4" d="M111.488 131.465C96.3171 137.545 83.3283 147.981 74.031 161.238C74.0218 161.238 74.0218 161.247 74.0218 161.247L74.0126 161.238C74.0126 161.238 74.0033 161.238 73.9918 161.228H73.9826L73.971 161.219C58.0801 145.845 48.1826 124.2 48.1826 100.211C48.1826 91.1048 49.614 82.3268 52.2621 74.1084C51.027 78.298 50.376 82.7348 50.376 87.3231C50.376 106.555 61.9126 123.074 78.3807 130.203C79.1587 130.544 79.9598 130.863 80.7587 131.164C85.6878 132.966 91.0094 133.955 96.5526 133.955C101.78 133.955 106.808 133.078 111.488 131.465Z" fill="#9B51E0"/>
<path d="M219.623 85.3411C219.623 83.1402 220.713 81.352 222.892 79.9765C225.072 78.6009 227.36 77.9131 229.759 77.9131C233.792 77.9131 236.297 79.8389 237.278 83.6905C237.495 84.2407 239.266 91.1722 242.59 104.489C245.915 117.804 248.339 127.049 249.865 132.222L267.028 84.3526C268.554 80.7202 271.551 78.9063 276.018 78.9063C280.594 78.9063 283.81 81.2727 285.662 86.0033L302.661 131.726L311.815 96.7327C313.013 91.5615 314.158 87.3229 315.248 84.0216C316.446 80.5011 318.954 78.7384 322.768 78.7384C325.166 78.7384 327.399 79.4542 329.47 80.8834C331.541 82.3126 332.63 84.0752 332.739 86.1665C332.739 87.2669 332.575 88.3114 332.25 89.3023C332.032 90.074 330.126 96.3993 326.529 108.285C322.932 120.171 320.318 128.534 318.683 133.376C316.068 141.518 314.433 146.36 313.78 147.901C312.145 152.632 308.659 154.998 303.319 154.998C298.307 154.998 294.874 152.469 293.022 147.405C291.171 143.112 287.954 134.612 283.379 121.903C278.803 109.192 276.404 102.617 276.187 102.177L260.986 142.621C259.352 147.242 257.689 150.517 255.999 152.441C254.312 154.366 251.721 155.329 248.235 155.329C244.858 155.329 242.433 154.614 240.96 153.184C239.49 151.753 238.211 149.442 237.119 146.248L219.956 87.1551C219.732 86.7144 219.623 86.1105 219.623 85.3411Z" fill="#222222"/>
<path d="M351.687 33.8392C357.461 33.8392 360.349 36.8095 360.349 42.7524C360.349 44.1839 360.321 46.2472 360.266 48.9424C360.213 51.6376 360.157 56.7831 360.104 64.3767C360.049 71.9702 359.968 80.6643 359.859 90.4588C361.93 86.4976 365.036 83.3338 369.177 80.9674C373.317 78.6009 377.895 77.4189 382.907 77.4189C392.061 77.4189 399.2 80.5547 404.321 86.8287C409.441 93.1026 412.004 101.135 412.004 110.929V121.658V134.945V147.078C411.896 152.25 408.682 154.835 402.361 154.835C399.856 154.835 397.729 154.175 395.986 152.853C394.243 151.531 393.371 149.606 393.371 147.076C393.915 136.624 394.188 125.011 394.188 112.246C394.188 106.303 392.798 101.708 390.018 98.4627C387.241 95.215 383.344 93.5923 378.332 93.5923C373.319 93.5923 368.96 95.5997 365.255 99.6168C361.549 103.634 359.698 108.723 359.698 114.886C359.698 118.406 359.751 124.13 359.862 132.054C359.97 139.977 360.026 145.094 360.026 147.405C360.026 149.937 359.181 151.863 357.493 153.184C355.803 154.504 353.543 155.166 350.71 155.166C348.094 155.166 345.97 154.478 344.336 153.101C342.701 151.725 341.884 149.83 341.884 147.407C341.884 144.766 341.965 140.858 342.129 135.687C342.29 130.516 342.373 127.105 342.373 125.454L342.209 43.7455C342.207 37.1405 345.365 33.8392 351.687 33.8392Z" fill="#222222"/>
<path d="M427.112 54.8854C425.097 52.5189 424.307 49.5743 424.744 46.0538C425.18 42.9716 426.542 40.5795 428.83 38.8728C431.118 37.1685 433.681 36.3152 436.513 36.3152C440.11 36.3152 442.862 37.3597 444.767 39.4511C446.674 41.5424 447.628 44.2376 447.628 47.5389C447.628 51.1713 446.483 53.8945 444.195 55.7084C441.907 57.5246 438.91 58.4315 435.204 58.4315C431.827 58.4338 429.13 57.2518 427.112 54.8854ZM429.567 80.0582C431.254 78.7386 433.244 78.0764 435.532 78.0764C438.474 78.0764 440.764 78.8178 442.398 80.3053C444.033 81.7904 444.85 84.404 444.85 88.146V106.963V125.615V146.248C444.959 149.221 444.225 151.448 442.643 152.935C441.062 154.42 438.746 155.164 435.696 155.164C433.08 155.164 430.956 154.504 429.322 153.182C427.687 151.86 426.87 149.935 426.87 147.403V86.3275C426.978 83.4691 427.877 81.3778 429.567 80.0582Z" fill="#222222"/>
<path d="M518.238 89.4679C518.238 91.5592 517.557 93.513 516.194 95.3268C514.832 97.1431 513.061 98.05 510.882 98.05C509.247 98.05 506.904 97.2783 503.854 95.7395C501.13 94.5295 497.969 93.9233 494.375 93.9233C488.601 93.9233 483.778 96.3993 479.908 101.351C476.041 106.303 474.106 111.696 474.106 117.527C474.106 123.799 475.986 129.028 479.747 133.208C483.505 137.391 488.217 139.48 493.885 139.48C498.244 139.48 502.331 138.377 506.145 136.179C509.414 134.528 511.593 133.703 512.683 133.703C514.645 133.703 516.333 134.668 517.75 136.591C519.168 138.517 519.874 140.583 519.874 142.781C519.874 145.313 518.84 147.295 516.769 148.724C510.667 153.455 502.984 155.824 493.721 155.824C481.951 155.824 472.772 152.026 466.178 144.432C459.587 136.839 456.29 128.42 456.29 119.175C456.399 108.28 460.076 98.6235 467.323 90.2069C474.57 81.788 483.805 77.5774 495.028 77.5774C502.548 77.5774 509.086 79.3376 514.643 82.8605C517.039 84.5158 518.238 86.7144 518.238 89.4679Z" fill="#222222"/>
<path d="M537.679 33.8392C543.456 33.8392 546.344 36.8095 546.344 42.7524C546.344 44.1839 546.316 46.2472 546.261 48.9424C546.208 51.6376 546.152 56.7831 546.099 64.3767C546.046 71.9702 545.963 80.6643 545.857 90.4588C547.925 86.4976 551.033 83.3338 555.172 80.9674C559.312 78.6009 563.888 77.4189 568.902 77.4189C578.056 77.4189 585.195 80.5547 590.316 86.8287C595.436 93.1026 597.994 101.135 597.994 110.929V121.658V134.945V147.078C597.886 152.25 594.672 154.835 588.353 154.835C585.846 154.835 583.722 154.175 581.977 152.853C580.231 151.531 579.361 149.606 579.361 147.076C579.906 136.624 580.178 125.011 580.178 112.246C580.178 106.303 578.788 101.708 576.011 98.4627C573.233 95.215 569.336 93.5923 564.324 93.5923C559.312 93.5923 554.953 95.5997 551.248 99.6168C547.542 103.634 545.69 108.723 545.69 114.886C545.69 118.406 545.744 124.13 545.854 132.054C545.963 139.977 546.016 145.094 546.016 147.405C546.016 149.937 545.173 151.863 543.481 153.184C541.793 154.504 539.531 155.166 536.698 155.166C534.082 155.166 531.956 154.478 530.321 153.101C528.687 151.725 527.869 149.83 527.869 147.407C527.869 144.766 527.95 140.858 528.114 135.687C528.276 130.516 528.359 127.105 528.359 125.454L528.195 43.7455C528.2 37.1405 531.36 33.8392 537.679 33.8392Z" fill="#222222"/>
<path d="M615.067 80.3891C616.651 78.9576 618.856 78.2441 621.687 78.2441C625.609 78.2441 627.899 80.2259 628.555 84.1871L629.208 93.2658C631.494 88.3138 634.682 84.4621 638.769 81.711C642.857 78.9599 647.08 77.5844 651.439 77.5844C657.215 77.5844 660.101 80.4451 660.101 86.1688C660.101 88.5912 659.476 90.6266 658.222 92.2772C656.968 93.9279 655.142 94.7533 652.748 94.7533H649.966C644.411 94.7533 639.724 97.0917 635.91 101.769C632.096 106.446 630.187 112.799 630.187 120.833C630.187 122.484 630.24 126.445 630.349 132.719C630.462 138.988 630.462 143.889 630.349 147.409C630.24 152.473 627.193 155.003 621.195 155.003C618.256 155.003 616.049 154.262 614.576 152.774C613.105 151.289 612.424 148.675 612.532 144.933C612.863 119.513 613.024 105.979 613.024 104.326C613.024 102.456 612.996 99.5654 612.943 95.6602C612.89 91.755 612.863 88.8103 612.863 86.8286C612.754 83.9656 613.488 81.8183 615.067 80.3891Z" fill="#222222"/>
<path d="M666.554 54.8854C664.539 52.5189 663.744 49.5743 664.183 46.0538C664.619 42.9716 665.982 40.5795 668.269 38.8728C670.56 37.1685 673.122 36.3152 675.953 36.3152C679.548 36.3152 682.302 37.3597 684.209 39.4511C686.116 41.5424 687.067 44.2376 687.067 47.5389C687.067 51.1713 685.922 53.8945 683.636 55.7084C681.346 57.5246 678.352 58.4315 674.644 58.4315C671.266 58.4338 668.57 57.2518 666.554 54.8854ZM669.001 80.0582C670.691 78.7386 672.681 78.0764 674.967 78.0764C677.911 78.0764 680.199 78.8178 681.835 80.3053C683.468 81.7904 684.287 84.404 684.287 88.146V106.963V125.615V146.248C684.396 149.221 683.662 151.448 682.078 152.935C680.499 154.42 678.181 155.164 675.133 155.164C672.518 155.164 670.389 154.504 668.757 153.182C667.12 151.863 666.305 149.935 666.305 147.403V86.3275C666.413 83.4691 667.316 81.3778 669.001 80.0582Z" fill="#222222"/>
<path d="M772.714 81.2146C772.714 85.0662 772.686 90.7059 772.633 98.134C772.58 105.562 772.552 111.255 772.552 115.219C772.552 116.65 772.605 120.721 772.714 127.434C772.822 134.146 772.875 140.804 772.875 147.407C772.875 152.69 770.043 155.33 764.375 155.33C759.905 155.33 757.291 153.241 756.53 149.058L755.876 141.627C750.213 150.984 742.146 155.661 731.683 155.661C721.005 155.661 712.396 151.975 705.858 144.602C699.32 137.228 696.051 128.59 696.051 118.686C696.051 107.131 699.671 97.4742 706.918 89.7151C714.165 81.9583 723.236 78.0788 734.135 78.0788C738.496 78.0788 742.553 79.0137 746.314 80.8859C750.07 82.7557 752.988 85.3972 755.057 88.8081L754.895 44.5686C754.895 37.9659 757.834 34.6646 763.719 34.6646C766.663 34.6646 768.976 35.3244 770.668 36.6463C772.354 37.9659 773.148 40.1132 773.035 43.0835L772.714 81.2146ZM719.916 133.376C723.838 137.666 728.578 139.814 734.137 139.814C740.131 139.814 745.171 137.722 749.257 133.542C753.344 129.362 755.385 123.803 755.385 116.87C755.385 109.826 753.482 104.214 749.666 100.032C745.85 95.8491 741.057 93.7602 735.282 93.7602C729.289 93.7602 724.249 96.017 720.163 100.528C716.074 105.04 714.031 110.873 714.031 118.026C714.031 123.967 715.993 129.084 719.916 133.376Z" fill="#222222"/>
<path d="M807.765 134.202C811.525 137.722 816.129 139.485 821.575 139.485C827.243 139.485 832.528 138 837.434 135.027C839.828 133.598 841.957 132.882 843.806 132.882C845.768 132.882 847.511 133.761 849.038 135.524C850.566 137.286 851.328 139.266 851.328 141.466C851.328 144.327 849.691 146.857 846.422 149.06C839.666 153.462 830.896 155.663 820.107 155.663C809.974 155.663 801.395 152.114 794.365 145.017C787.335 137.918 783.715 129.364 783.493 119.348C783.493 107.684 787.118 97.8075 794.365 89.7173C801.612 81.6295 810.521 77.5844 821.09 77.5844C830.353 77.5844 838.17 80.6665 844.547 86.8286C850.919 92.9907 854.107 100.034 854.107 107.956C854.107 112.689 853.318 116.019 851.741 117.944C850.157 119.87 846.699 120.887 841.361 120.999C838.637 121.108 835.532 121.164 832.041 121.164C828.555 121.164 823.817 121.192 817.824 121.248C811.83 121.302 806.432 121.33 801.639 121.33C801.96 126.389 804.008 130.681 807.765 134.202ZM808.092 97.5557C804.44 101.076 802.344 105.149 801.796 109.77C817.925 109.77 829.042 109.551 835.141 109.11C836.448 108.891 837.104 108.395 837.104 107.625C837.104 103.223 835.552 99.5631 832.445 96.6487C829.337 93.7344 825.662 92.2749 821.411 92.2749C816.182 92.2726 811.74 94.0352 808.092 97.5557Z" fill="#222222"/>
</g>
<defs>
<filter id="filter0_d_7_18" x="0" y="0" width="874.107" height="240" filterUnits="userSpaceOnUse" color-interpolation-filters="sRGB">
<feFlood flood-opacity="0" result="BackgroundImageFix"/>
<feColorMatrix in="SourceAlpha" type="matrix" values="0 0 0 0 0 0 0 0 0 0 0 0 0 0 0 0 0 0 127 0" result="hardAlpha"/>
<feOffset dy="10"/>
<feGaussianBlur stdDeviation="10"/>
<feColorMatrix type="matrix" values="0 0 0 0 0 0 0 0 0 0 0 0 0 0 0 0 0 0 0.07 0"/>
<feBlend mode="normal" in2="BackgroundImageFix" result="effect1_dropShadow_7_18"/>
<feBlend mode="normal" in="SourceGraphic" in2="effect1_dropShadow_7_18" result="shape"/>
</filter>
</defs>
</svg>
